<svg width="13" height="16" viewBox="0 0 13 16" fill="none" xmlns="http://www.w3.org/2000/svg">
<g clip-path="url(#clip0_8_12733)">
<path d="M10.8583 8.48406C10.8807 10.9008 12.9784 11.705 13.0016 11.7153C12.9838 11.772 12.6664 12.8614 11.8965 13.9866C11.2309 14.9594 10.54 15.9287 9.45179 15.9487C8.38258 15.9685 8.03871 15.3147 6.8162 15.3147C5.59406 15.3147 5.21204 15.9287 4.19982 15.9685C3.14941 16.0082 2.34951 14.9165 1.67843 13.9472C0.306998 11.9646 -0.741028 8.34469 0.666211 5.90121C1.36528 4.68775 2.61466 3.91939 3.97064 3.89968C5.00211 3.88003 5.97572 4.59363 6.60627 4.59363C7.23642 4.59363 8.41956 3.73547 9.66334 3.86149C10.184 3.88317 11.6456 4.07177 12.5841 5.44554C12.5084 5.49242 10.8401 6.46364 10.8583 8.48411M8.84871 2.54979C9.40643 1.87474 9.78174 0.93506 9.67934 0C8.87548 0.0323048 7.90349 0.53567 7.32688 1.21031C6.81016 1.8078 6.35764 2.76404 6.47975 3.68056C7.37575 3.74989 8.291 3.22524 8.84871 2.54979Z" fill="black"/>
</g>
<defs>
<clipPath id="clip0_8_12733">
<rect width="13.005" height="16" fill="white" transform="translate(-0.00250244)"/>
</clipPath>
</defs>
</svg>
